<svg xmlns="http://www.w3.org/2000/svg" version="1.1" xmlns:xlink="http://www.w3.org/1999/xlink" xmlns:svgjs="http://svgjs.dev/svgjs" width="1000" height="1000" viewBox="0 0 1000 1000"><rect width="1000" height="1000" fill="#ffffff"></rect><g transform="matrix(0.7,0,0,0.7,149.57575757575756,440.75042252195834)"><svg viewBox="0 0 396 67" data-background-color="#ffffff" preserveAspectRatio="xMidYMid meet" height="169" width="1000" xmlns="http://www.w3.org/2000/svg" xmlns:xlink="http://www.w3.org/1999/xlink"><g id="tight-bounds" transform="matrix(1,0,0,1,0.2400000000000091,0.0563963738697737)"><svg viewBox="0 0 395.52 66.88720725226047" height="66.88720725226047" width="395.52"><g><svg viewBox="0 0 485.11782447939225 82.03928111781661" height="66.88720725226047" width="395.52"><g transform="matrix(1,0,0,1,0,11.338279807165687)"><svg viewBox="0 0 395.52 59.36272150348524" height="59.36272150348524" width="395.52"><g id="textblocktransform"><svg viewBox="0 0 395.52 59.36272150348524" height="59.36272150348524" width="395.52" id="textblock"><g><svg viewBox="0 0 395.52 32.01741541527167" height="32.01741541527167" width="395.52"><g transform="matrix(1,0,0,1,0,0)"><svg width="395.52" viewBox="4 -35.45000076293945 446.5409631347656 36.150001525878906" height="32.01741541527167" data-palette-color="#2257bf"><g transform="matrix(1,0,0,1,0,0)"><g><svg width="17.713974609374997" viewBox="1.7799999713897705 -36.36000061035156 74.20999908447266 36.36000061035156" height="8.679" data-palette-color="#2257bf" id="scriptelement" x="432.82699450078536" y="-35.45000076293945"><path d="M12.91-30.02L1.78-30.02 1.78-36.36 31.64-36.36 31.64-30.02 20.51-30.02 20.51 0 12.91 0 12.91-30.02ZM36.57 0L36.57-36.36 46.06-36.36 56.07-11.93 56.5-11.93 66.51-36.36 75.99-36.36 75.99 0 68.53 0 68.53-23.67 68.23-23.67 58.82-0.18 53.74-0.18 44.33-23.76 44.03-23.76 44.03 0 36.57 0Z" opacity="1" transform="matrix(1,0,0,1,0,0)" fill="#2257bf" class="undefined-123" data-fill-palette-color="primary" id="p-123"></path></svg></g></g><path d="M11.8-28.25L11.8-6.35Q12.35-6.3 13.08-6.28 13.8-6.25 14.8-6.25L14.8-6.25Q20.65-6.25 23.48-9.2 26.3-12.15 26.3-17.35L26.3-17.35Q26.3-22.8 23.6-25.6 20.9-28.4 15.05-28.4L15.05-28.4Q14.25-28.4 13.4-28.38 12.55-28.35 11.8-28.25L11.8-28.25ZM34.35-17.35L34.35-17.35Q34.35-12.85 32.95-9.5 31.55-6.15 28.98-3.95 26.4-1.75 22.7-0.65 19 0.45 14.4 0.45L14.4 0.45Q12.3 0.45 9.5 0.28 6.7 0.1 4-0.45L4-0.45 4-34.2Q6.7-34.7 9.63-34.88 12.55-35.05 14.65-35.05L14.65-35.05Q19.1-35.05 22.73-34.05 26.35-33.05 28.95-30.9 31.55-28.75 32.95-25.4 34.35-22.05 34.35-17.35ZM70.55 0L61.3 0Q60.25-1.7 58.82-3.68 57.4-5.65 55.72-7.63 54.05-9.6 52.25-11.43 50.45-13.25 48.65-14.65L48.65-14.65 48.65 0 40.85 0 40.85-34.65 48.65-34.65 48.65-21.55Q51.7-24.75 54.77-28.23 57.85-31.7 60.5-34.65L60.5-34.65 69.75-34.65Q66.2-30.45 62.62-26.55 59.05-22.65 55.1-18.7L55.1-18.7Q59.25-15.25 63.12-10.5 67-5.75 70.55 0L70.55 0ZM84.04-34.65L112.74-34.65 112.74-28 102.29-28 102.29 0 94.49 0 94.49-28 84.04-28 84.04-34.65ZM142.29 0L117.74 0 117.74-34.65 141.14-34.65 141.14-28.1 125.54-28.1 125.54-21.3 139.39-21.3 139.39-14.9 125.54-14.9 125.54-6.55 142.29-6.55 142.29 0ZM163.84 0.7L163.84 0.7Q155.39 0.7 150.96-4 146.54-8.7 146.54-17.35L146.54-17.35Q146.54-21.65 147.89-25.03 149.24-28.4 151.59-30.73 153.94-33.05 157.19-34.25 160.44-35.45 164.24-35.45L164.24-35.45Q166.44-35.45 168.24-35.13 170.04-34.8 171.39-34.38 172.74-33.95 173.64-33.5 174.54-33.05 174.94-32.8L174.94-32.8 172.69-26.5Q171.09-27.35 168.96-27.95 166.84-28.55 164.14-28.55L164.14-28.55Q162.34-28.55 160.61-27.95 158.89-27.35 157.56-26.03 156.24-24.7 155.44-22.6 154.64-20.5 154.64-17.5L154.64-17.5Q154.64-15.1 155.16-13.03 155.69-10.95 156.86-9.45 158.04-7.95 159.94-7.08 161.84-6.2 164.54-6.2L164.54-6.2Q166.24-6.2 167.59-6.4 168.94-6.6 169.99-6.88 171.04-7.15 171.84-7.5 172.64-7.85 173.29-8.15L173.29-8.15 175.44-1.9Q173.79-0.9 170.79-0.1 167.79 0.7 163.84 0.7ZM201.34-21.4L201.34-34.65 209.14-34.65 209.14 0 201.34 0 201.34-14.7 188.24-14.7 188.24 0 180.44 0 180.44-34.65 188.24-34.65 188.24-21.4 201.34-21.4ZM246.93 0L240.38 0Q237.03-5.95 233.13-11.75 229.23-17.55 224.83-22.7L224.83-22.7 224.83 0 217.13 0 217.13-34.65 223.48-34.65Q225.13-33 227.13-30.6 229.13-28.2 231.21-25.48 233.28-22.75 235.33-19.83 237.38-16.9 239.18-14.2L239.18-14.2 239.18-34.65 246.93-34.65 246.93 0ZM261.48-17.35L261.48-17.35Q261.48-14.8 262.11-12.75 262.73-10.7 263.91-9.22 265.08-7.75 266.78-6.95 268.48-6.15 270.68-6.15L270.68-6.15Q272.83-6.15 274.56-6.95 276.28-7.75 277.46-9.22 278.63-10.7 279.26-12.75 279.88-14.8 279.88-17.35L279.88-17.35Q279.88-19.9 279.26-21.98 278.63-24.05 277.46-25.53 276.28-27 274.56-27.8 272.83-28.6 270.68-28.6L270.68-28.6Q268.48-28.6 266.78-27.78 265.08-26.95 263.91-25.48 262.73-24 262.11-21.93 261.48-19.85 261.48-17.35ZM287.93-17.35L287.93-17.35Q287.93-12.9 286.61-9.53 285.28-6.15 282.98-3.88 280.68-1.6 277.51-0.45 274.33 0.7 270.68 0.7L270.68 0.7Q267.13 0.7 263.98-0.45 260.83-1.6 258.48-3.88 256.13-6.15 254.78-9.53 253.43-12.9 253.43-17.35L253.43-17.35Q253.43-21.8 254.83-25.18 256.23-28.55 258.61-30.85 260.98-33.15 264.11-34.3 267.23-35.45 270.68-35.45L270.68-35.45Q274.23-35.45 277.38-34.3 280.53-33.15 282.88-30.85 285.23-28.55 286.58-25.18 287.93-21.8 287.93-17.35ZM302.23-6.7L317.58-6.7 317.58 0 294.43 0 294.43-34.65 302.23-34.65 302.23-6.7ZM328.13-17.35L328.13-17.35Q328.13-14.8 328.75-12.75 329.38-10.7 330.55-9.22 331.73-7.75 333.43-6.95 335.13-6.15 337.33-6.15L337.33-6.15Q339.48-6.15 341.2-6.95 342.93-7.75 344.1-9.22 345.28-10.7 345.9-12.75 346.53-14.8 346.53-17.35L346.53-17.35Q346.53-19.9 345.9-21.98 345.28-24.05 344.1-25.53 342.93-27 341.2-27.8 339.48-28.6 337.33-28.6L337.33-28.6Q335.13-28.6 333.43-27.78 331.73-26.95 330.55-25.48 329.38-24 328.75-21.93 328.13-19.85 328.13-17.35ZM354.58-17.35L354.58-17.35Q354.58-12.9 353.25-9.53 351.93-6.15 349.63-3.88 347.33-1.6 344.15-0.45 340.98 0.7 337.33 0.7L337.33 0.7Q333.78 0.7 330.63-0.45 327.48-1.6 325.13-3.88 322.78-6.15 321.43-9.53 320.08-12.9 320.08-17.35L320.08-17.35Q320.08-21.8 321.48-25.18 322.88-28.55 325.25-30.85 327.63-33.15 330.75-34.3 333.88-35.45 337.33-35.45L337.33-35.45Q340.88-35.45 344.03-34.3 347.18-33.15 349.53-30.85 351.88-28.55 353.23-25.18 354.58-21.8 354.58-17.35ZM377.97-28.65L377.97-28.65Q372.52-28.65 370.1-25.63 367.67-22.6 367.67-17.35L367.67-17.35Q367.67-14.8 368.27-12.73 368.87-10.65 370.07-9.15 371.27-7.65 373.07-6.83 374.87-6 377.27-6L377.27-6Q378.57-6 379.5-6.05 380.42-6.1 381.12-6.25L381.12-6.25 381.12-18.3 388.92-18.3 388.92-1.15Q387.52-0.6 384.42 0.03 381.32 0.65 376.77 0.65L376.77 0.65Q372.87 0.65 369.7-0.55 366.52-1.75 364.27-4.05 362.02-6.35 360.8-9.7 359.57-13.05 359.57-17.35L359.57-17.35Q359.57-21.7 360.92-25.05 362.27-28.4 364.62-30.73 366.97-33.05 370.15-34.25 373.32-35.45 376.92-35.45L376.92-35.45Q379.37-35.45 381.35-35.13 383.32-34.8 384.75-34.38 386.17-33.95 387.1-33.5 388.02-33.05 388.42-32.8L388.42-32.8 386.17-26.55Q384.57-27.4 382.5-28.03 380.42-28.65 377.97-28.65ZM407.87-20.4L407.87-20.4Q409.97-23.95 411.87-27.5 413.77-31.05 415.37-34.65L415.37-34.65 423.97-34.65Q421.12-29.05 418.07-23.8 415.02-18.55 411.62-13.25L411.62-13.25 411.62 0 403.82 0 403.82-13.15Q400.42-18.45 397.35-23.75 394.27-29.05 391.42-34.65L391.42-34.65 400.47-34.65Q402.07-31.05 403.92-27.5 405.77-23.95 407.87-20.4Z" opacity="1" transform="matrix(1,0,0,1,0,0)" fill="#2257bf" class="undefined-text-0" data-fill-palette-color="primary" id="text-0"></path></svg></g></svg></g><g transform="matrix(1,0,0,1,184.7417418006765,39.575958776847344)"><svg viewBox="0 0 187.24482733940923 19.786762726637892" height="19.786762726637892" width="187.24482733940923"><g transform="matrix(1,0,0,1,0,0)"><svg width="187.24482733940923" viewBox="4.150000095367432 -38.79999923706055 455.6100158691406 48.150001525878906" height="19.786762726637892" data-palette-color="#2257bf"><path d="M14.6 0.4L14.6 0.4Q11.85 0.4 9.05 0.23 6.25 0.05 4.15-0.5L4.15-0.5 4.15-34.15Q5.25-34.35 6.5-34.52 7.75-34.7 9.05-34.8 10.35-34.9 11.63-34.95 12.9-35 14.05-35L14.05-35Q17.2-35 19.9-34.52 22.6-34.05 24.58-32.95 26.55-31.85 27.65-30.05 28.75-28.25 28.75-25.6L28.75-25.6Q28.75-23.15 27.58-21.4 26.4-19.65 24.3-18.6L24.3-18.6Q27.45-17.55 28.95-15.5 30.45-13.45 30.45-10.3L30.45-10.3Q30.45-4.95 26.55-2.27 22.65 0.4 14.6 0.4ZM15.9-15.6L10.35-15.6 10.35-5.05Q11.4-4.95 12.6-4.9 13.8-4.85 14.8-4.85L14.8-4.85Q16.75-4.85 18.43-5.1 20.1-5.35 21.33-5.98 22.55-6.6 23.28-7.65 24-8.7 24-10.35L24-10.35Q24-13.3 21.85-14.45 19.7-15.6 15.9-15.6L15.9-15.6ZM10.35-29.65L10.35-20.55 14.8-20.55Q18.4-20.55 20.45-21.58 22.5-22.6 22.5-25.25L22.5-25.25Q22.5-27.75 20.38-28.8 18.25-29.85 14.85-29.85L14.85-29.85Q13.4-29.85 12.28-29.8 11.15-29.75 10.35-29.65L10.35-29.65ZM35.25-12.95L35.25-12.95Q35.25-16.4 36.27-19 37.3-21.6 39-23.33 40.7-25.05 42.9-25.93 45.1-26.8 47.4-26.8L47.4-26.8Q52.8-26.8 55.82-23.45 58.85-20.1 58.85-13.45L58.85-13.45Q58.85-12.95 58.82-12.33 58.8-11.7 58.75-11.2L58.75-11.2 41.5-11.2Q41.75-8.05 43.72-6.33 45.7-4.6 49.45-4.6L49.45-4.6Q51.65-4.6 53.47-5 55.3-5.4 56.35-5.85L56.35-5.85 57.15-0.9Q56.65-0.65 55.77-0.38 54.9-0.1 53.77 0.13 52.65 0.35 51.35 0.5 50.05 0.65 48.7 0.65L48.7 0.65Q45.25 0.65 42.7-0.38 40.15-1.4 38.5-3.23 36.85-5.05 36.05-7.53 35.25-10 35.25-12.95ZM41.55-15.65L52.8-15.65Q52.8-16.9 52.45-18.03 52.1-19.15 51.42-19.98 50.75-20.8 49.77-21.28 48.8-21.75 47.45-21.75L47.45-21.75Q46.05-21.75 45-21.23 43.95-20.7 43.22-19.85 42.5-19 42.1-17.9 41.7-16.8 41.55-15.65L41.55-15.65ZM80.35-26.15L86.6-26.15Q82.55-11.25 77.2 0.85L77.2 0.85Q76.2 3.1 75.15 4.7 74.1 6.3 72.8 7.35 71.5 8.4 69.9 8.88 68.3 9.35 66.2 9.35L66.2 9.35Q64.8 9.35 63.42 9.05 62.05 8.75 61.35 8.4L61.35 8.4 62.45 3.55Q64.25 4.25 66 4.25L66 4.25Q68.35 4.25 69.67 3.13 71 2 72-0.35L72-0.35Q69.15-5.85 66.52-12.35 63.9-18.85 61.85-26.15L61.85-26.15 68.3-26.15Q68.8-24.05 69.52-21.6 70.25-19.15 71.1-16.63 71.95-14.1 72.9-11.6 73.85-9.1 74.8-6.95L74.8-6.95Q76.4-11.4 77.8-16.43 79.2-21.45 80.35-26.15L80.35-26.15ZM114.84-13.1L114.84-13.1Q114.84-10 113.94-7.45 113.04-4.9 111.39-3.1 109.74-1.3 107.42-0.3 105.09 0.7 102.29 0.7L102.29 0.7Q99.49 0.7 97.19-0.3 94.89-1.3 93.24-3.1 91.59-4.9 90.67-7.45 89.74-10 89.74-13.1L89.74-13.1Q89.74-16.2 90.67-18.73 91.59-21.25 93.27-23.05 94.94-24.85 97.24-25.83 99.54-26.8 102.29-26.8L102.29-26.8Q105.04-26.8 107.37-25.83 109.69-24.85 111.34-23.05 112.99-21.25 113.92-18.73 114.84-16.2 114.84-13.1ZM108.64-13.1L108.64-13.1Q108.64-17 106.97-19.28 105.29-21.55 102.29-21.55L102.29-21.55Q99.29-21.55 97.62-19.28 95.94-17 95.94-13.1L95.94-13.1Q95.94-9.15 97.62-6.85 99.29-4.55 102.29-4.55L102.29-4.55Q105.29-4.55 106.97-6.85 108.64-9.15 108.64-13.1ZM121.09 0L121.09-25.3Q122.84-25.8 125.64-26.25 128.44-26.7 131.84-26.7L131.84-26.7Q135.04-26.7 137.19-25.83 139.34-24.95 140.62-23.38 141.89-21.8 142.42-19.58 142.94-17.35 142.94-14.7L142.94-14.7 142.94 0 136.89 0 136.89-13.75Q136.89-15.85 136.62-17.32 136.34-18.8 135.72-19.73 135.09-20.65 134.02-21.08 132.94-21.5 131.39-21.5L131.39-21.5Q130.24-21.5 128.99-21.35 127.74-21.2 127.14-21.1L127.14-21.1 127.14 0 121.09 0ZM155.09-13.15L155.09-13.15Q155.09-9.15 156.99-6.88 158.89-4.6 162.24-4.6L162.24-4.6Q163.69-4.6 164.71-4.73 165.74-4.85 166.39-5L166.39-5 166.39-20Q165.59-20.55 164.26-21.03 162.94-21.5 161.44-21.5L161.44-21.5Q158.14-21.5 156.61-19.25 155.09-17 155.09-13.15ZM172.44-38.8L172.44-0.8Q170.64-0.25 167.91 0.2 165.19 0.65 162.19 0.65L162.19 0.65Q159.09 0.65 156.64-0.3 154.19-1.25 152.46-3.03 150.74-4.8 149.81-7.33 148.89-9.85 148.89-13L148.89-13Q148.89-16.1 149.66-18.63 150.44-21.15 151.94-22.95 153.44-24.75 155.59-25.73 157.74-26.7 160.54-26.7L160.54-26.7Q162.44-26.7 163.89-26.25 165.34-25.8 166.39-25.25L166.39-25.25 166.39-37.8 172.44-38.8ZM200.48-4.7L200.48-4.7Q203.88-4.7 205.43-5.85 206.98-7 206.98-9.1L206.98-9.1Q206.98-10.35 206.46-11.25 205.93-12.15 204.96-12.88 203.98-13.6 202.58-14.23 201.18-14.85 199.38-15.45L199.38-15.45Q197.58-16.1 195.91-16.88 194.23-17.65 192.96-18.8 191.68-19.95 190.91-21.55 190.13-23.15 190.13-25.4L190.13-25.4Q190.13-30.1 193.38-32.77 196.63-35.45 202.23-35.45L202.23-35.45Q205.48-35.45 208.01-34.73 210.53-34 211.98-33.15L211.98-33.15 210.03-28.05Q208.33-29 206.31-29.5 204.28-30 202.13-30L202.13-30Q199.58-30 198.16-28.95 196.73-27.9 196.73-26L196.73-26Q196.73-24.85 197.21-24.03 197.68-23.2 198.56-22.55 199.43-21.9 200.61-21.35 201.78-20.8 203.18-20.3L203.18-20.3Q205.63-19.4 207.56-18.48 209.48-17.55 210.81-16.28 212.13-15 212.83-13.28 213.53-11.55 213.53-9.1L213.53-9.1Q213.53-4.4 210.21-1.83 206.88 0.75 200.48 0.75L200.48 0.75Q198.33 0.75 196.56 0.48 194.78 0.2 193.41-0.2 192.03-0.6 191.03-1.03 190.03-1.45 189.43-1.8L189.43-1.8 191.28-6.95Q192.63-6.2 194.93-5.45 197.23-4.7 200.48-4.7ZM227.98-4.25L227.98-4.25Q230.78-4.25 232.23-4.55L232.23-4.55 232.23-11.25Q231.73-11.4 230.78-11.55 229.83-11.7 228.68-11.7L228.68-11.7Q227.68-11.7 226.66-11.55 225.63-11.4 224.81-11 223.98-10.6 223.48-9.88 222.98-9.15 222.98-8.05L222.98-8.05Q222.98-5.9 224.33-5.08 225.68-4.25 227.98-4.25ZM227.48-26.8L227.48-26.8Q230.48-26.8 232.53-26.05 234.58-25.3 235.81-23.95 237.03-22.6 237.56-20.68 238.08-18.75 238.08-16.45L238.08-16.45 238.08-0.6Q236.68-0.3 233.86 0.13 231.03 0.55 227.48 0.55L227.48 0.55Q225.13 0.55 223.18 0.1 221.23-0.35 219.86-1.35 218.48-2.35 217.71-3.95 216.93-5.55 216.93-7.9L216.93-7.9Q216.93-10.15 217.81-11.7 218.68-13.25 220.18-14.23 221.68-15.2 223.66-15.63 225.63-16.05 227.78-16.05L227.78-16.05Q228.78-16.05 229.88-15.93 230.98-15.8 232.23-15.5L232.23-15.5 232.23-16.5Q232.23-17.55 231.98-18.5 231.73-19.45 231.11-20.18 230.48-20.9 229.46-21.3 228.43-21.7 226.88-21.7L226.88-21.7Q224.78-21.7 223.03-21.4 221.28-21.1 220.18-20.7L220.18-20.7 219.43-25.6Q220.58-26 222.78-26.4 224.98-26.8 227.48-26.8ZM245.18-10.4L245.18-33.05 251.23-34.05 251.23-26.15 260.53-26.15 260.53-21.1 251.23-21.1 251.23-10.45Q251.23-7.3 252.23-5.95 253.23-4.6 255.63-4.6L255.63-4.6Q257.28-4.6 258.55-4.95 259.83-5.3 260.58-5.6L260.58-5.6 261.58-0.8Q260.53-0.35 258.83 0.13 257.13 0.6 254.83 0.6L254.83 0.6Q252.03 0.6 250.15-0.15 248.28-0.9 247.18-2.33 246.08-3.75 245.63-5.78 245.18-7.8 245.18-10.4L245.18-10.4ZM272.48-26.15L272.48 0 266.43 0 266.43-26.15 272.48-26.15ZM273.13-33.8L273.13-33.8Q273.13-32.1 272.03-31.1 270.93-30.1 269.43-30.1L269.43-30.1Q267.88-30.1 266.78-31.1 265.68-32.1 265.68-33.8L265.68-33.8Q265.68-35.55 266.78-36.55 267.88-37.55 269.43-37.55L269.43-37.55Q270.93-37.55 272.03-36.55 273.13-35.55 273.13-33.8ZM286.72-4.35L286.72-4.35Q289.12-4.35 290.22-4.93 291.32-5.5 291.32-6.9L291.32-6.9Q291.32-8.2 290.15-9.05 288.97-9.9 286.27-10.9L286.27-10.9Q284.62-11.5 283.25-12.18 281.87-12.85 280.87-13.75 279.87-14.65 279.3-15.93 278.72-17.2 278.72-19.05L278.72-19.05Q278.72-22.65 281.37-24.73 284.02-26.8 288.57-26.8L288.57-26.8Q290.87-26.8 292.97-26.38 295.07-25.95 296.12-25.55L296.12-25.55 295.02-20.65Q294.02-21.1 292.47-21.48 290.92-21.85 288.87-21.85L288.87-21.85Q287.02-21.85 285.87-21.23 284.72-20.6 284.72-19.3L284.72-19.3Q284.72-18.65 284.95-18.15 285.17-17.65 285.72-17.23 286.27-16.8 287.17-16.38 288.07-15.95 289.37-15.5L289.37-15.5Q291.52-14.7 293.02-13.93 294.52-13.15 295.5-12.18 296.47-11.2 296.92-9.95 297.37-8.7 297.37-6.95L297.37-6.95Q297.37-3.2 294.6-1.28 291.82 0.65 286.67 0.65L286.67 0.65Q283.22 0.65 281.12 0.08 279.02-0.5 278.17-0.85L278.17-0.85 279.22-5.9Q280.57-5.35 282.45-4.85 284.32-4.35 286.72-4.35ZM313.67-38.8L313.67-38.8Q315.77-38.8 317.37-38.43 318.97-38.05 319.77-37.75L319.77-37.75 318.62-32.75Q317.77-33.15 316.65-33.4 315.52-33.65 314.22-33.65L314.22-33.65Q312.77-33.65 311.77-33.23 310.77-32.8 310.17-32.05 309.57-31.3 309.32-30.23 309.07-29.15 309.07-27.9L309.07-27.9 309.07-26.15 318.57-26.15 318.57-21.1 309.07-21.1 309.07 0 303.02 0 303.02-28Q303.02-33.05 305.67-35.93 308.32-38.8 313.67-38.8ZM332.22-4.25L332.22-4.25Q335.02-4.25 336.47-4.55L336.47-4.55 336.47-11.25Q335.97-11.4 335.02-11.55 334.07-11.7 332.92-11.7L332.92-11.7Q331.92-11.7 330.89-11.55 329.87-11.4 329.04-11 328.22-10.6 327.72-9.88 327.22-9.15 327.22-8.05L327.22-8.05Q327.22-5.9 328.57-5.08 329.92-4.25 332.22-4.25ZM331.72-26.8L331.72-26.8Q334.72-26.8 336.77-26.05 338.82-25.3 340.04-23.95 341.27-22.6 341.79-20.68 342.32-18.75 342.32-16.45L342.32-16.45 342.32-0.6Q340.92-0.3 338.09 0.13 335.27 0.55 331.72 0.55L331.72 0.55Q329.37 0.55 327.42 0.1 325.47-0.35 324.09-1.35 322.72-2.35 321.94-3.95 321.17-5.55 321.17-7.9L321.17-7.9Q321.17-10.15 322.04-11.7 322.92-13.25 324.42-14.23 325.92-15.2 327.89-15.63 329.87-16.05 332.02-16.05L332.02-16.05Q333.02-16.05 334.12-15.93 335.22-15.8 336.47-15.5L336.47-15.5 336.47-16.5Q336.47-17.55 336.22-18.5 335.97-19.45 335.34-20.18 334.72-20.9 333.69-21.3 332.67-21.7 331.12-21.7L331.12-21.7Q329.02-21.7 327.27-21.4 325.52-21.1 324.42-20.7L324.42-20.7 323.67-25.6Q324.82-26 327.02-26.4 329.22-26.8 331.72-26.8ZM348.27-13.05L348.27-13.05Q348.27-15.95 349.17-18.48 350.07-21 351.74-22.85 353.42-24.7 355.82-25.75 358.22-26.8 361.22-26.8L361.22-26.8Q364.92-26.8 368.22-25.45L368.22-25.45 366.92-20.5Q365.87-20.95 364.54-21.25 363.22-21.55 361.72-21.55L361.72-21.55Q358.17-21.55 356.32-19.33 354.47-17.1 354.47-13.05L354.47-13.05Q354.47-9.15 356.22-6.88 357.97-4.6 362.12-4.6L362.12-4.6Q363.67-4.6 365.17-4.9 366.67-5.2 367.77-5.65L367.77-5.65 368.62-0.65Q367.62-0.15 365.59 0.25 363.57 0.65 361.42 0.65L361.42 0.65Q358.07 0.65 355.59-0.38 353.12-1.4 351.49-3.23 349.87-5.05 349.07-7.58 348.27-10.1 348.27-13.05ZM373.01-10.4L373.01-33.05 379.06-34.05 379.06-26.15 388.36-26.15 388.36-21.1 379.06-21.1 379.06-10.45Q379.06-7.3 380.06-5.95 381.06-4.6 383.46-4.6L383.46-4.6Q385.11-4.6 386.39-4.95 387.66-5.3 388.41-5.6L388.41-5.6 389.41-0.8Q388.36-0.35 386.66 0.13 384.96 0.6 382.66 0.6L382.66 0.6Q379.86 0.6 377.99-0.15 376.11-0.9 375.01-2.33 373.91-3.75 373.46-5.78 373.01-7.8 373.01-10.4L373.01-10.4ZM400.31-26.15L400.31 0 394.26 0 394.26-26.15 400.31-26.15ZM400.96-33.8L400.96-33.8Q400.96-32.1 399.86-31.1 398.76-30.1 397.26-30.1L397.26-30.1Q395.71-30.1 394.61-31.1 393.51-32.1 393.51-33.8L393.51-33.8Q393.51-35.55 394.61-36.55 395.71-37.55 397.26-37.55L397.26-37.55Q398.76-37.55 399.86-36.55 400.96-35.55 400.96-33.8ZM431.66-13.1L431.66-13.1Q431.66-10 430.76-7.45 429.86-4.9 428.21-3.1 426.56-1.3 424.23-0.3 421.91 0.7 419.11 0.7L419.11 0.7Q416.31 0.7 414.01-0.3 411.71-1.3 410.06-3.1 408.41-4.9 407.48-7.45 406.56-10 406.56-13.1L406.56-13.1Q406.56-16.2 407.48-18.73 408.41-21.25 410.08-23.05 411.76-24.85 414.06-25.83 416.36-26.8 419.11-26.8L419.11-26.8Q421.86-26.8 424.18-25.83 426.51-24.85 428.16-23.05 429.81-21.25 430.73-18.73 431.66-16.2 431.66-13.1ZM425.46-13.1L425.46-13.1Q425.46-17 423.78-19.28 422.11-21.55 419.11-21.55L419.11-21.55Q416.11-21.55 414.43-19.28 412.76-17 412.76-13.1L412.76-13.1Q412.76-9.15 414.43-6.85 416.11-4.55 419.11-4.55L419.11-4.55Q422.11-4.55 423.78-6.85 425.46-9.15 425.46-13.1ZM437.91 0L437.91-25.3Q439.66-25.8 442.46-26.25 445.26-26.7 448.66-26.7L448.66-26.7Q451.86-26.7 454.01-25.83 456.16-24.95 457.43-23.38 458.71-21.8 459.23-19.58 459.76-17.35 459.76-14.7L459.76-14.7 459.76 0 453.71 0 453.71-13.75Q453.71-15.85 453.43-17.32 453.16-18.8 452.53-19.73 451.91-20.65 450.83-21.08 449.76-21.5 448.21-21.5L448.21-21.5Q447.06-21.5 445.81-21.35 444.56-21.2 443.96-21.1L443.96-21.1 443.96 0 437.91 0Z" opacity="1" transform="matrix(1,0,0,1,0,0)" fill="#2257bf" class="undefined-text-1" data-fill-palette-color="secondary" id="text-1"></path></svg></g></svg></g></svg></g></svg></g><g transform="matrix(1,0,0,1,403.07854336157567,0)"><svg viewBox="0 0 82.03928111781661 82.03928111781661" height="82.03928111781661" width="82.03928111781661"><g data-palette-color="#2257bf"><rect width="22.424070172203205" height="82.03928111781661" fill="#2257bf" stroke="transparent" data-fill-palette-color="accent" x="0" fill-opacity="1"></rect><rect width="22.424070172203205" height="82.03928111781661" fill="#2257bf" stroke="transparent" data-fill-palette-color="accent" x="27.3464270392722" fill-opacity="0.75"></rect><rect width="22.424070172203205" height="82.03928111781661" fill="#2257bf" stroke="transparent" data-fill-palette-color="accent" x="54.6928540785444" fill-opacity="0.5"></rect></g></svg></g></svg></g><defs></defs></svg><rect width="395.52" height="66.88720725226047" fill="none" stroke="none" visibility="hidden"></rect></g></svg></g></svg>